<svg xmlns="http://www.w3.org/2000/svg" viewBox="0 0 384 96" role="img" aria-label="Agentic Economy">
  <g transform="translate(16 16)" color="currentColor">
    <defs>
  <mask id="proof-cut" maskUnits="userSpaceOnUse">
    <rect width="64" height="64" fill="white"/>
    <path d="M14 32 H50" stroke="black" stroke-width="3.8" stroke-linecap="square"/>
  </mask>
</defs>
    <path d="M32 5 L49 12 L59 29 L55 47 L39 59 L21 56 L7 43 L10 23 Z" fill="none" stroke="currentColor" stroke-width="4.2" stroke-linejoin="round"/>
<path d="M32 10 L46 16 L54 30 L51 44 L38 54 L23 52 L12 41 L15 25 Z" fill="none" stroke="currentColor" stroke-width="1.8" stroke-linejoin="round" opacity="0.92"/>
<g mask="url(#proof-cut)" fill="none" stroke="currentColor" stroke-width="6.6" stroke-linecap="butt" stroke-linejoin="miter">
  <path d="M18.5 47 L29.3 17.5 L32 17.5 L32 47"/>
  <path d="M32 18.5 H47"/>
  <path d="M32 46 H47"/>
  <path d="M40.5 32 H49"/>
</g>
<path d="M15 32 H49" fill="none" stroke="currentColor" stroke-width="2.2" stroke-linecap="square"/>
  </g>
  <text x="96" y="58" fill="currentColor" font-family="Inter, Geist, Avenir Next, Helvetica Neue, Arial, sans-serif" font-size="36" font-weight="650" letter-spacing="-1.2">Agentic Economy</text>
  <path d="M98 70 H352" stroke="currentColor" stroke-width="1.25" opacity="0.28"/>
</svg>
